<?xml version="1.0" standalone="no"?>
<!DOCTYPE svg PUBLIC "-//W3C//DTD SVG 20010904//EN"
 "http://www.w3.org/TR/2001/REC-SVG-20010904/DTD/svg10.dtd">
<svg version="1.0" xmlns="http://www.w3.org/2000/svg"
 width="360.000000pt" height="360.000000pt" viewBox="0 0 360.000000 360.000000"
 preserveAspectRatio="xMidYMid meet">

<g transform="translate(0.000000,360.000000) scale(0.100000,-0.100000)"
fill="#000000" stroke="none">
<path d="M1137 2134 c-4 -4 -7 -19 -7 -33 0 -14 -16 -68 -36 -120 -19 -51 -32
-96 -30 -99 3 -3 13 11 21 31 8 21 20 37 26 37 5 0 8 4 4 9 -7 12 14 61 37 84
10 10 15 23 12 29 -4 6 -10 24 -13 40 -3 16 -9 26 -14 22z"/>
<path d="M2470 2042 c0 -23 19 -42 43 -42 17 0 17 2 -5 29 -27 35 -38 38 -38
13z"/>
<path d="M2544 1982 c-5 -9 -7 -30 -4 -47 6 -29 6 -28 13 14 9 49 6 58 -9 33z"/>
<path d="M2484 1969 c-3 -6 -15 -9 -25 -6 -11 3 -19 1 -19 -5 0 -11 -50 -55
-92 -80 -16 -10 -28 -26 -28 -38 0 -18 -3 -19 -20 -10 -11 6 -20 9 -20 8 0 -2
7 -21 14 -43 18 -50 42 -62 33 -15 -7 32 -6 32 15 18 13 -9 25 -26 29 -39 5
-23 6 -22 13 8 4 17 15 34 24 36 15 4 15 5 -1 6 -28 2 -9 21 21 21 15 0 34 4
42 10 12 7 12 10 -4 16 -18 7 -18 8 -1 20 9 7 14 17 10 23 -3 6 0 11 7 11 7 0
20 5 28 10 13 9 13 11 0 20 -10 6 -11 10 -3 10 7 0 10 7 7 15 -7 18 -20 19
-30 4z"/>
<path d="M1392 1934 c-5 -11 -15 -44 -22 -74 -7 -30 -16 -62 -21 -71 -6 -12 1
-17 32 -26 36 -9 53 -3 29 12 -19 12 -10 26 11 20 l22 -7 -22 30 c-25 36 -26
42 -6 42 19 0 19 29 1 65 -13 25 -15 26 -24 9z"/>
<path d="M845 1883 c-4 -16 -13 -65 -19 -111 -12 -80 -12 -83 11 -114 12 -18
23 -39 23 -48 0 -9 9 -25 20 -35 19 -17 22 -17 65 -1 62 24 97 68 90 112 -3
19 -7 49 -10 68 -7 45 -56 106 -108 133 -55 29 -63 29 -72 -4z m106 -62 c49
-50 29 -103 -26 -67 -39 26 -60 63 -45 81 19 22 38 18 71 -14z"/>
<path d="M588 1843 c-51 -58 -61 -140 -28 -218 25 -57 25 -55 -2 -55 -26 -1
-72 -70 -103 -155 -10 -27 -29 -72 -43 -100 l-25 -49 34 -26 c19 -14 51 -42
72 -62 53 -53 117 -52 117 2 0 31 -24 56 -60 63 -24 4 -24 4 -2 6 13 0 32 10
43 20 l21 19 -66 44 c-61 40 -65 45 -62 76 2 18 8 38 13 43 14 14 104 -32 135
-69 36 -45 93 -75 127 -67 25 5 39 -3 107 -61 44 -37 95 -77 116 -90 20 -13
39 -28 43 -34 3 -5 24 -10 45 -10 33 0 41 -5 60 -35 22 -35 22 -35 94 -35 89
0 116 -20 116 -89 0 -38 2 -42 21 -39 12 2 27 12 34 23 11 18 6 32 -41 115
-48 85 -54 101 -54 154 0 43 -4 62 -16 71 -14 9 -14 16 -5 33 7 13 9 27 6 32
-3 6 1 10 9 10 23 0 19 25 -6 44 -14 11 -17 15 -7 12 9 -2 -9 21 -40 53 -32
33 -59 53 -63 47 -7 -10 22 -75 50 -111 8 -11 -2 -2 -24 21 -21 22 -45 49 -51
60 -8 11 -7 3 2 -20 12 -31 12 -36 1 -27 -8 6 -20 26 -27 43 -12 30 -13 30
-21 8 -7 -18 -11 -20 -22 -10 -12 9 -15 5 -18 -27 l-3 -38 -32 34 c-29 30 -33
31 -33 14 0 -12 -7 -24 -16 -27 -19 -7 -37 2 -29 15 8 12 -18 12 -30 0 -6 -5
-21 -12 -35 -16 l-25 -8 20 23 20 23 -25 -6 -25 -6 21 17 c12 9 30 23 40 29
16 11 15 11 -9 3 -16 -6 -38 -10 -50 -10 -20 1 -20 2 -4 11 23 14 22 29 -3 29
-17 0 -19 3 -11 19 12 21 5 32 -14 25 -7 -3 -15 2 -19 11 -3 10 -12 15 -21 11
-9 -3 -15 0 -15 8 0 7 -9 21 -20 31 -24 22 -26 35 -5 35 8 0 15 -4 15 -10 0
-5 10 -10 23 -10 20 1 20 2 4 11 -9 6 -15 15 -12 20 4 5 11 7 16 4 5 -4 9 7 9
24 0 16 3 38 6 48 5 12 4 15 -4 8 -5 -5 -12 -19 -15 -30 -3 -14 -5 -12 -7 10
l-2 30 -11 -32 c-16 -44 -31 -42 -37 4 -5 37 -6 37 -13 11 -8 -29 -27 -39 -27
-13 0 7 -6 18 -14 22 -8 4 -24 25 -36 46 -25 42 -31 44 -52 20z m612 -561 c0
-5 -11 -19 -24 -31 -20 -19 -28 -21 -45 -11 -24 12 -19 30 7 30 15 0 15 -2 2
-10 -8 -5 -10 -10 -5 -10 6 0 18 9 28 20 17 20 37 27 37 12z m-619 -79 c13
-17 13 -17 -6 -3 -11 8 -22 16 -24 17 -2 2 0 3 6 3 6 0 17 -8 24 -17z m589
-41 c0 -9 -9 -23 -20 -30 -20 -12 -21 -12 -5 18 18 34 25 38 25 12z"/>
<path d="M1036 1838 c-19 -26 -21 -47 -4 -30 7 7 23 12 38 12 l25 1 -24 13
c-18 10 -20 15 -10 19 8 3 9 6 2 6 -6 1 -19 -9 -27 -21z"/>
<path d="M1720 1847 c0 -7 11 -29 25 -50 27 -38 42 -50 26 -19 -5 9 -15 32
-21 50 -12 32 -30 44 -30 19z"/>
<path d="M1700 1830 c0 -5 5 -10 11 -10 5 0 7 5 4 10 -3 6 -8 10 -11 10 -2 0
-4 -4 -4 -10z"/>
<path d="M1963 1807 c-7 -15 -13 -47 -12 -70 l0 -42 15 40 c8 22 13 53 12 70
l-3 30 -12 -28z"/>
<path d="M1655 1770 c-8 -13 4 -31 45 -67 54 -47 180 -106 180 -85 0 5 -13 12
-28 15 -27 6 -141 89 -174 128 -10 11 -19 15 -23 9z"/>
<path d="M1225 1700 c-3 -5 4 -19 16 -31 l21 -21 -21 -21 c-16 -17 -23 -19
-33 -9 -17 17 -48 15 -48 -3 0 -28 -26 -15 -43 20 -9 19 -21 35 -25 35 -5 0
-12 -26 -15 -57 -6 -57 5 -89 25 -77 6 4 25 10 43 14 30 7 37 4 76 -36 24 -24
47 -44 52 -44 5 0 5 6 -1 13 -16 20 -52 87 -46 87 2 0 17 -8 32 -17 l27 -17
-18 21 c-18 20 -17 21 14 32 18 6 41 11 53 11 16 0 18 2 7 9 -7 5 -9 10 -3 12
6 2 12 15 14 29 3 22 -1 25 -37 27 -28 2 -36 0 -25 -6 22 -15 5 -24 -19 -11
-25 13 -29 42 -4 33 11 -4 14 -3 9 5 -9 14 -42 16 -51 2z"/>
<path d="M1586 1589 c22 -25 74 -49 104 -49 32 0 15 16 -46 44 -69 32 -83 33
-58 5z"/>
<path d="M1953 1470 c-6 -14 -13 -32 -16 -40 -3 -9 -6 -10 -6 -2 -1 6 -12 12
-26 12 -19 0 -25 -5 -25 -21 0 -18 -2 -19 -15 -9 -8 7 -15 21 -15 31 0 25 -11
24 -83 -9 -34 -16 -95 -39 -136 -51 -43 -13 -84 -33 -99 -48 -18 -18 -27 -22
-30 -13 -3 7 -11 -2 -18 -19 -12 -27 -18 -32 -43 -30 -15 2 -36 -3 -45 -10
-13 -11 -17 -11 -22 3 -9 24 -24 9 -24 -24 0 -19 6 -31 18 -34 11 -4 30 -18
43 -33 l24 -26 -24 14 c-13 8 -37 21 -55 31 -30 16 -31 16 -34 -7 -2 -13 16
-61 40 -107 l42 -83 6 35 c5 34 6 35 55 37 95 4 214 25 226 39 6 8 18 14 25
14 8 0 14 4 14 9 0 5 14 12 30 16 17 4 30 10 30 15 0 4 18 11 40 15 22 4 40
11 40 16 0 5 6 9 14 9 7 0 26 7 42 14 15 8 32 12 37 9 4 -3 17 4 28 16 11 12
27 21 35 21 24 0 55 -20 49 -31 -4 -5 -1 -9 6 -9 7 0 10 -3 6 -6 -13 -13 184
-281 239 -326 11 -9 33 -44 48 -77 32 -71 51 -84 115 -78 51 4 232 58 299 89
41 18 43 20 29 41 -20 30 -37 33 -30 5 6 -23 6 -23 -15 -4 -17 15 -39 19 -107
20 -72 1 -88 4 -97 19 -9 17 -11 17 -28 2 -17 -15 -20 -14 -43 9 -15 14 -33
26 -42 26 -9 0 -13 4 -10 10 3 5 -7 15 -22 22 -39 17 -39 16 -17 33 19 14 18
15 -3 21 -13 3 -23 11 -23 17 0 6 -3 8 -6 5 -9 -9 -46 31 -39 42 4 6 1 10 -5
10 -6 0 -8 5 -5 10 3 6 -3 10 -13 10 -23 0 -52 40 -52 70 0 11 -7 20 -15 20
-17 0 -20 25 -5 35 18 11 10 22 -21 29 -19 4 -33 13 -36 26 -3 11 -9 20 -14
20 -5 0 -18 9 -30 21 -11 11 -27 18 -35 15 -10 -4 -14 2 -14 22 -1 25 -1 26
-12 7 -12 -19 -13 -18 -18 10 -4 24 -10 29 -28 27 -12 -2 -22 2 -22 9 0 9 -3
9 -14 0 -11 -10 -16 -5 -23 26 -10 37 -10 38 -20 13z m-104 -80 c-1 -24 -1
-24 -14 5 -7 17 -11 34 -8 39 8 13 23 -16 22 -44z"/>
<path d="M1364 1415 c-3 -8 -4 -20 -2 -27 3 -7 7 -1 10 15 6 29 1 36 -8 12z"/>
<path d="M1458 1423 c7 -3 16 -2 19 1 4 3 -2 6 -13 5 -11 0 -14 -3 -6 -6z"/>
<path d="M1495 1380 c-3 -5 -1 -10 4 -10 6 0 11 5 11 10 0 6 -2 10 -4 10 -3 0
-8 -4 -11 -10z"/>
</g>
</svg>
